<svg xmlns="http://www.w3.org/2000/svg" fill="none" viewBox="0 0 24 24" stroke-width="1.5" stroke="currentColor" class="w-8 h-8"><path stroke-linecap="round" d="M7.4 17.4a1.2 1.2 0 0 1-2.4 0m2.4 0a1.2 1.2 0 0 0-2.4 0m2.4 0h4.8m-7.2 0H3.5a.9.9 0 0 1-.9-.9v-2.7m13.8 3.6a1.2 1.2 0 0 1-2.4 0m2.4 0a1.2 1.2 0 0 0-2.4 0m2.4 0h.9c.497 0 .903-.403.872-.9a14.3 14.3 0 0 0-2.57-7.354 1.65 1.65 0 0 0-1.264-.688H12.2M14 17.4h-1.8m0-8.942v-.766a.884.884 0 0 0-.79-.885 39 39 0 0 0-8.02 0 .885.885 0 0 0-.79.885V13.8m9.6-5.342V13.8m0 3.6v-3.6m0 0H2.6" stroke-width="1.2"/><path stroke-linecap="round" stroke-linejoin="round" d="M23 8h-2m0 0h-2m2 0v-2m0 2v2"/></svg>